M48
;Layer_Color=9474304
;FILE_FORMAT=2:4
INCH,TZ
;TYPE=PLATED
T1F00S00C0.0315
T2F00S00C0.0630
;TYPE=NON_PLATED
T3F00S00C0.0906
T4F00S00C0.1260
%
T01
X28819Y1374
Y4374
X29693Y5315
X31693
Y6496
X32579Y6843
X33760
X33858Y4374
X31839Y3543
X30839
X28693Y6496
X29685Y7571
X29185Y8571
X30185
X33858Y1374
X5118Y6496
X3642Y6693
X1642
X2051Y9154
X4051
X3051Y8154
X5118Y11614
X5043Y12795
Y13976
X4543Y15945
X2543
X2043Y13976
Y12795
X6890Y17610
Y18610
X6697Y22516
X7697
X3453Y24016
X2453
X8697Y22516
X9697
X10697
X11697
X12697
X13697
X13583Y18610
Y17610
X21457
Y18610
X18020Y24016
X17020
X31587Y24016
X32587
X33480Y16831
X32480Y15831
X31480Y16831
X28150Y17610
Y18610
X29146Y13504
X30146
X31020Y11919
X30185Y10854
X29185
X29685Y9854
X32579Y9843
X33760
X34020Y11919
X28150Y29421
Y30421
X21457
Y29421
X13583
Y30421
X13697Y25516
X12697
X11697
X10697
X9697
X8697
X7697
X6697
X6890Y29421
Y30421
T02
X3543Y1575
Y3425
Y5276
T03
X11752Y4724
X22894
X17323Y13386
T04
X26890Y1575
X7598
X32480Y29921
X2559
M30
