G04*
G04 #@! TF.GenerationSoftware,Altium Limited,Altium Designer,22.1.2 (22)*
G04*
G04 Layer_Color=11799224*
%FSLAX25Y25*%
%MOIN*%
G70*
G04*
G04 #@! TF.SameCoordinates,0AB73392-B4F8-4B41-AFD0-4ADCA8AC720B*
G04*
G04*
G04 #@! TF.FilePolarity,Positive*
G04*
G01*
G75*
%ADD10C,0.01000*%
%ADD13C,0.01575*%
%ADD33C,0.03937*%
%ADD34C,0.00600*%
D10*
X350394Y344488D02*
X356394Y346488D01*
X350394Y344488D02*
X356394Y342488D01*
X318803D02*
X324803Y344488D01*
X318803Y346488D02*
X324803Y344488D01*
X350394D02*
X360394D01*
X314803D02*
X324803D01*
Y306906D02*
Y345488D01*
X350394Y331709D02*
Y345488D01*
X268898Y-21654D02*
X274898Y-19654D01*
X268898Y-21654D02*
X274898Y-23653D01*
X344394D02*
X350394Y-21654D01*
X344394Y-19654D02*
X350394Y-21654D01*
X268898D02*
X292450D01*
X323641D02*
X350394D01*
X268898Y-22654D02*
Y8055D01*
X350394Y-22654D02*
Y-2968D01*
X-6000Y344457D02*
X0Y346457D01*
X-6000Y348457D02*
X0Y346457D01*
X25591D02*
X31591Y348457D01*
X25591Y346457D02*
X31591Y344457D01*
X-10000Y346457D02*
X0D01*
X25591D02*
X35590D01*
X25591Y306906D02*
Y347457D01*
X0Y331709D02*
Y347457D01*
X372016Y334740D02*
X374016Y328740D01*
X376016Y334740D01*
X374016Y299213D02*
X376016Y293213D01*
X372016D02*
X374016Y299213D01*
Y328740D02*
Y338740D01*
Y289213D02*
Y299213D01*
X332496D02*
X375016D01*
X353362Y328740D02*
X375016D01*
X372047Y0D02*
X374047Y-6000D01*
X370047D02*
X372047Y0D01*
X370047Y21748D02*
X372047Y15748D01*
X374047Y21748D01*
X372047Y-10000D02*
Y0D01*
Y15748D02*
Y25748D01*
X276590Y15748D02*
X373047D01*
X353362Y0D02*
X373047D01*
X0Y-19685D02*
X6000Y-17685D01*
X0Y-19685D02*
X6000Y-21685D01*
X69984D02*
X75984Y-19685D01*
X69984Y-17685D02*
X75984Y-19685D01*
X0D02*
X21296D01*
X51488D02*
X75984D01*
X0Y-20685D02*
Y-2968D01*
X75984Y-20685D02*
Y8055D01*
X0Y379921D02*
X6000Y381921D01*
X0Y379921D02*
X6000Y377921D01*
X344394D02*
X350394Y379921D01*
X344394Y381921D02*
X350394Y379921D01*
X0D02*
X158001D01*
X189192D02*
X350394D01*
X0Y331709D02*
Y380921D01*
X350394Y331709D02*
Y380921D01*
X-61055Y6000D02*
X-59055Y0D01*
X-57055Y6000D01*
X-59055Y328740D02*
X-57055Y322740D01*
X-61055D02*
X-59055Y328740D01*
Y0D02*
Y147175D01*
Y178366D02*
Y328740D01*
X-60055Y0D02*
X-2968D01*
X-60055Y328740D02*
X-2968D01*
D13*
X-57480Y-35829D02*
Y-42389D01*
X-56168Y-43701D01*
X-53545D01*
X-52233Y-42389D01*
Y-35829D01*
X-49609Y-43701D02*
Y-38453D01*
X-45673D01*
X-44361Y-39765D01*
Y-43701D01*
X-41737D02*
X-39114D01*
X-40426D01*
Y-38453D01*
X-41737D01*
X-33866Y-37141D02*
Y-38453D01*
X-35178D01*
X-32554D01*
X-33866D01*
Y-42389D01*
X-32554Y-43701D01*
X-28618D02*
X-24682D01*
X-23371Y-42389D01*
X-24682Y-41077D01*
X-27306D01*
X-28618Y-39765D01*
X-27306Y-38453D01*
X-23371D01*
X-20747D02*
X-19435D01*
Y-39765D01*
X-20747D01*
Y-38453D01*
Y-42389D02*
X-19435D01*
Y-43701D01*
X-20747D01*
Y-42389D01*
X-6316Y-43701D02*
Y-38453D01*
X-5004D01*
X-3692Y-39765D01*
Y-43701D01*
Y-39765D01*
X-2380Y-38453D01*
X-1068Y-39765D01*
Y-43701D01*
X1556D02*
Y-38453D01*
X2868D01*
X4180Y-39765D01*
Y-43701D01*
Y-39765D01*
X5491Y-38453D01*
X6803Y-39765D01*
Y-43701D01*
D33*
X331102Y299213D02*
X331025Y300198D01*
X330794Y301159D01*
X330416Y302072D01*
X329899Y302915D01*
X329257Y303667D01*
X328506Y304309D01*
X327663Y304825D01*
X326750Y305204D01*
X325788Y305434D01*
X324803Y305512D01*
X323818Y305434D01*
X322857Y305204D01*
X321943Y304825D01*
X321101Y304309D01*
X320349Y303667D01*
X319707Y302915D01*
X319191Y302072D01*
X318812Y301159D01*
X318582Y300198D01*
X318504Y299213D01*
X318582Y298227D01*
X318812Y297266D01*
X319191Y296353D01*
X319707Y295510D01*
X320349Y294758D01*
X321101Y294116D01*
X321943Y293600D01*
X322857Y293222D01*
X323818Y292991D01*
X324803Y292913D01*
X325788Y292991D01*
X326750Y293222D01*
X327663Y293600D01*
X328506Y294116D01*
X329257Y294758D01*
X329899Y295510D01*
X330416Y296353D01*
X330794Y297266D01*
X331025Y298227D01*
X331102Y299213D01*
X31890D02*
X31812Y300198D01*
X31581Y301159D01*
X31203Y302072D01*
X30687Y302915D01*
X30045Y303667D01*
X29293Y304309D01*
X28450Y304825D01*
X27537Y305204D01*
X26576Y305434D01*
X25591Y305512D01*
X24605Y305434D01*
X23644Y305204D01*
X22731Y304825D01*
X21888Y304309D01*
X21136Y303667D01*
X20494Y302915D01*
X19978Y302072D01*
X19600Y301159D01*
X19369Y300198D01*
X19291Y299213D01*
X19369Y298227D01*
X19600Y297266D01*
X19978Y296353D01*
X20494Y295510D01*
X21136Y294758D01*
X21888Y294116D01*
X22731Y293600D01*
X23644Y293222D01*
X24605Y292991D01*
X25591Y292913D01*
X26576Y292991D01*
X27537Y293222D01*
X28450Y293600D01*
X29293Y294116D01*
X30045Y294758D01*
X30687Y295510D01*
X31203Y296353D01*
X31581Y297266D01*
X31812Y298227D01*
X31890Y299213D01*
X82284Y15748D02*
X82206Y16733D01*
X81975Y17695D01*
X81597Y18608D01*
X81080Y19451D01*
X80439Y20202D01*
X79687Y20844D01*
X78844Y21361D01*
X77931Y21739D01*
X76970Y21970D01*
X75984Y22047D01*
X74999Y21970D01*
X74038Y21739D01*
X73124Y21361D01*
X72282Y20844D01*
X71530Y20202D01*
X70888Y19451D01*
X70372Y18608D01*
X69993Y17695D01*
X69763Y16733D01*
X69685Y15748D01*
X69763Y14763D01*
X69993Y13802D01*
X70372Y12888D01*
X70888Y12045D01*
X71530Y11294D01*
X72282Y10652D01*
X73124Y10135D01*
X74038Y9757D01*
X74999Y9526D01*
X75984Y9449D01*
X76970Y9526D01*
X77931Y9757D01*
X78844Y10135D01*
X79687Y10652D01*
X80439Y11294D01*
X81080Y12045D01*
X81597Y12888D01*
X81975Y13802D01*
X82206Y14763D01*
X82284Y15748D01*
X275197D02*
X275119Y16733D01*
X274888Y17695D01*
X274510Y18608D01*
X273994Y19451D01*
X273352Y20202D01*
X272600Y20844D01*
X271757Y21361D01*
X270844Y21739D01*
X269883Y21970D01*
X268898Y22047D01*
X267912Y21970D01*
X266951Y21739D01*
X266038Y21361D01*
X265195Y20844D01*
X264443Y20202D01*
X263802Y19451D01*
X263285Y18608D01*
X262907Y17695D01*
X262676Y16733D01*
X262598Y15748D01*
X262676Y14763D01*
X262907Y13802D01*
X263285Y12888D01*
X263802Y12045D01*
X264443Y11294D01*
X265195Y10652D01*
X266038Y10135D01*
X266951Y9757D01*
X267912Y9526D01*
X268898Y9449D01*
X269883Y9526D01*
X270844Y9757D01*
X271757Y10135D01*
X272600Y10652D01*
X273352Y11294D01*
X273994Y12045D01*
X274510Y12888D01*
X274888Y13802D01*
X275119Y14763D01*
X275197Y15748D01*
X350394Y0D02*
Y328740D01*
X0Y0D02*
Y328740D01*
X350394D01*
X0Y0D02*
X350394D01*
X-29462Y433073D02*
Y456688D01*
X-21590Y448816D01*
X-13719Y456688D01*
Y433073D01*
X5960D02*
X-1912D01*
X-5848Y437009D01*
Y444881D01*
X-1912Y448816D01*
X5960D01*
X9895Y444881D01*
Y440945D01*
X-5848D01*
X33510Y448816D02*
X21702D01*
X17767Y444881D01*
Y437009D01*
X21702Y433073D01*
X33510D01*
X41381Y456688D02*
Y433073D01*
Y444881D01*
X45317Y448816D01*
X53188D01*
X57124Y444881D01*
Y433073D01*
X68931Y448816D02*
X76803D01*
X80739Y444881D01*
Y433073D01*
X68931D01*
X64996Y437009D01*
X68931Y440945D01*
X80739D01*
X88610Y433073D02*
Y448816D01*
X100417D01*
X104353Y444881D01*
Y433073D01*
X112224D02*
X120096D01*
X116160D01*
Y448816D01*
X112224D01*
X147646D02*
X135839D01*
X131903Y444881D01*
Y437009D01*
X135839Y433073D01*
X147646D01*
X159453Y448816D02*
X167325D01*
X171260Y444881D01*
Y433073D01*
X159453D01*
X155517Y437009D01*
X159453Y440945D01*
X171260D01*
X179132Y433073D02*
X187003D01*
X183068D01*
Y456688D01*
X179132D01*
X222425D02*
Y433073D01*
X234232D01*
X238168Y437009D01*
Y452752D01*
X234232Y456688D01*
X222425D01*
X246039Y448816D02*
Y433073D01*
Y440945D01*
X249975Y444881D01*
X253911Y448816D01*
X257847D01*
X273590D02*
X281461D01*
X285397Y444881D01*
Y433073D01*
X273590D01*
X269654Y437009D01*
X273590Y440945D01*
X285397D01*
X293268Y448816D02*
Y437009D01*
X297204Y433073D01*
X301140Y437009D01*
X305076Y433073D01*
X309011Y437009D01*
Y448816D01*
X316883Y433073D02*
X324754D01*
X320818D01*
Y448816D01*
X316883D01*
X336561Y433073D02*
Y448816D01*
X348369D01*
X352304Y444881D01*
Y433073D01*
X368047Y425202D02*
X371983D01*
X375919Y429138D01*
Y448816D01*
X364111D01*
X360176Y444881D01*
Y437009D01*
X364111Y433073D01*
X375919D01*
D34*
X329001Y359684D02*
X327001Y358684D01*
X325002Y356685D01*
Y354685D01*
X326002Y353686D01*
X328001D01*
X329001Y354685D01*
Y355685D01*
X328001Y356685D01*
X325002D01*
X332000Y352686D02*
X332999Y353686D01*
Y354685D01*
X332000D01*
Y353686D01*
X332999D01*
X332000Y352686D01*
X331000Y351686D01*
X340997Y359684D02*
X336998D01*
Y356685D01*
X338997Y357684D01*
X339997D01*
X340997Y356685D01*
Y354685D01*
X339997Y353686D01*
X337998D01*
X336998Y354685D01*
X342996Y358684D02*
X343996Y359684D01*
X345995D01*
X346995Y358684D01*
Y354685D01*
X345995Y353686D01*
X343996D01*
X342996Y354685D01*
Y358684D01*
X298049Y-26252D02*
X294050D01*
X298049Y-22253D01*
Y-21254D01*
X297049Y-20254D01*
X295050D01*
X294050Y-21254D01*
X300048D02*
X301048Y-20254D01*
X303047D01*
X304047Y-21254D01*
Y-25253D01*
X303047Y-26252D01*
X301048D01*
X300048Y-25253D01*
Y-21254D01*
X307046Y-27252D02*
X308046Y-26252D01*
Y-25253D01*
X307046D01*
Y-26252D01*
X308046D01*
X307046Y-27252D01*
X306046Y-28252D01*
X312044Y-20254D02*
X316043D01*
Y-21254D01*
X312044Y-25253D01*
Y-26252D01*
X318042Y-21254D02*
X319042Y-20254D01*
X321041D01*
X322041Y-21254D01*
Y-25253D01*
X321041Y-26252D01*
X319042D01*
X318042Y-25253D01*
Y-21254D01*
X4197Y361652D02*
X2198Y360652D01*
X199Y358653D01*
Y356654D01*
X1199Y355654D01*
X3198D01*
X4197Y356654D01*
Y357653D01*
X3198Y358653D01*
X199D01*
X7197Y354654D02*
X8196Y355654D01*
Y356654D01*
X7197D01*
Y355654D01*
X8196D01*
X7197Y354654D01*
X6197Y353655D01*
X16194Y361652D02*
X12195D01*
Y358653D01*
X14194Y359653D01*
X15194D01*
X16194Y358653D01*
Y356654D01*
X15194Y355654D01*
X13195D01*
X12195Y356654D01*
X18193Y360652D02*
X19193Y361652D01*
X21192D01*
X22192Y360652D01*
Y356654D01*
X21192Y355654D01*
X19193D01*
X18193Y356654D01*
Y360652D01*
X386413Y301380D02*
Y305379D01*
X387412D01*
X391411Y301380D01*
X392411D01*
X393410Y308378D02*
X392411Y309377D01*
X391411D01*
Y308378D01*
X392411D01*
Y309377D01*
X393410Y308378D01*
X394410Y307378D01*
X386413Y317375D02*
Y313376D01*
X389411D01*
X388412Y315375D01*
Y316375D01*
X389411Y317375D01*
X391411D01*
X392411Y316375D01*
Y314376D01*
X391411Y313376D01*
X387412Y319374D02*
X386413Y320374D01*
Y322373D01*
X387412Y323373D01*
X391411D01*
X392411Y322373D01*
Y320374D01*
X391411Y319374D01*
X387412D01*
X390442Y-1723D02*
X384444D01*
X387443Y-4722D01*
Y-724D01*
X391442Y2275D02*
X390442Y3275D01*
X389442D01*
Y2275D01*
X390442D01*
Y3275D01*
X391442Y2275D01*
X392441Y1276D01*
X385444Y7274D02*
X384444Y8273D01*
Y10273D01*
X385444Y11272D01*
X389442D01*
X390442Y10273D01*
Y8273D01*
X389442Y7274D01*
X385444D01*
Y13272D02*
X384444Y14271D01*
Y16271D01*
X385444Y17270D01*
X389442D01*
X390442Y16271D01*
Y14271D01*
X389442Y13272D01*
X385444D01*
X22896Y-24284D02*
X24896D01*
X23896D01*
Y-18286D01*
X22896Y-19285D01*
X27895Y-23284D02*
X28894Y-24284D01*
X30894D01*
X31894Y-23284D01*
Y-19285D01*
X30894Y-18286D01*
X28894D01*
X27895Y-19285D01*
Y-20285D01*
X28894Y-21285D01*
X31894D01*
X34893Y-25283D02*
X35892Y-24284D01*
Y-23284D01*
X34893D01*
Y-24284D01*
X35892D01*
X34893Y-25283D01*
X33893Y-26283D01*
X39891Y-19285D02*
X40891Y-18286D01*
X42890D01*
X43890Y-19285D01*
Y-20285D01*
X42890Y-21285D01*
X41890D01*
X42890D01*
X43890Y-22284D01*
Y-23284D01*
X42890Y-24284D01*
X40891D01*
X39891Y-23284D01*
X45889Y-19285D02*
X46889Y-18286D01*
X48888D01*
X49888Y-19285D01*
Y-23284D01*
X48888Y-24284D01*
X46889D01*
X45889Y-23284D01*
Y-19285D01*
X159601Y380321D02*
X160601Y381321D01*
X162600D01*
X163600Y380321D01*
Y379321D01*
X162600Y378322D01*
X163600Y377322D01*
Y376322D01*
X162600Y375323D01*
X160601D01*
X159601Y376322D01*
Y377322D01*
X160601Y378322D01*
X159601Y379321D01*
Y380321D01*
X160601Y378322D02*
X162600D01*
X165599Y376322D02*
X166599Y375323D01*
X168598D01*
X169598Y376322D01*
Y380321D01*
X168598Y381321D01*
X166599D01*
X165599Y380321D01*
Y379321D01*
X166599Y378322D01*
X169598D01*
X172597Y374323D02*
X173597Y375323D01*
Y376322D01*
X172597D01*
Y375323D01*
X173597D01*
X172597Y374323D01*
X171598Y373323D01*
X177596Y380321D02*
X178595Y381321D01*
X180595D01*
X181594Y380321D01*
Y376322D01*
X180595Y375323D01*
X178595D01*
X177596Y376322D01*
Y380321D01*
X183594D02*
X184593Y381321D01*
X186593D01*
X187592Y380321D01*
Y376322D01*
X186593Y375323D01*
X184593D01*
X183594Y376322D01*
Y380321D01*
X-59455Y148775D02*
X-60454Y149774D01*
Y151774D01*
X-59455Y152773D01*
X-58455D01*
X-57455Y151774D01*
X-56456Y152773D01*
X-55456D01*
X-54456Y151774D01*
Y149774D01*
X-55456Y148775D01*
X-56456D01*
X-57455Y149774D01*
X-58455Y148775D01*
X-59455D01*
X-57455Y149774D02*
Y151774D01*
X-59455Y154773D02*
X-60454Y155772D01*
Y157772D01*
X-59455Y158771D01*
X-58455D01*
X-57455Y157772D01*
Y156772D01*
Y157772D01*
X-56456Y158771D01*
X-55456D01*
X-54456Y157772D01*
Y155772D01*
X-55456Y154773D01*
X-53457Y161770D02*
X-54456Y162770D01*
X-55456D01*
Y161770D01*
X-54456D01*
Y162770D01*
X-53457Y161770D01*
X-52457Y160771D01*
X-60454Y170767D02*
Y166769D01*
X-57455D01*
X-58455Y168768D01*
Y169768D01*
X-57455Y170767D01*
X-55456D01*
X-54456Y169768D01*
Y167769D01*
X-55456Y166769D01*
X-59455Y172767D02*
X-60454Y173767D01*
Y175766D01*
X-59455Y176766D01*
X-55456D01*
X-54456Y175766D01*
Y173767D01*
X-55456Y172767D01*
X-59455D01*
M02*
