G04*
G04 #@! TF.GenerationSoftware,Altium Limited,Altium Designer,22.1.2 (22)*
G04*
G04 Layer_Color=32896*
%FSLAX25Y25*%
%MOIN*%
G70*
G04*
G04 #@! TF.SameCoordinates,0AB73392-B4F8-4B41-AFD0-4ADCA8AC720B*
G04*
G04*
G04 #@! TF.FilePolarity,Positive*
G04*
G01*
G75*
%ADD10C,0.01000*%
D10*
X280709Y15748D02*
X280666Y16750D01*
X280539Y17744D01*
X280328Y18724D01*
X280034Y19683D01*
X279660Y20613D01*
X279209Y21508D01*
X278683Y22362D01*
X278087Y23168D01*
X277425Y23921D01*
X276701Y24614D01*
X275921Y25244D01*
X275090Y25806D01*
X274215Y26294D01*
X273301Y26707D01*
X272356Y27041D01*
X271386Y27294D01*
X270398Y27463D01*
X269399Y27548D01*
X268396D01*
X267397Y27463D01*
X266409Y27294D01*
X265439Y27041D01*
X264494Y26707D01*
X263580Y26294D01*
X262705Y25806D01*
X261874Y25244D01*
X261094Y24614D01*
X260371Y23921D01*
X259708Y23168D01*
X259112Y22362D01*
X258586Y21508D01*
X258135Y20613D01*
X257761Y19683D01*
X257468Y18724D01*
X257257Y17744D01*
X257129Y16750D01*
X257087Y15748D01*
X257129Y14746D01*
X257257Y13752D01*
X257468Y12772D01*
X257761Y11813D01*
X258135Y10883D01*
X258586Y9988D01*
X259112Y9134D01*
X259708Y8328D01*
X260371Y7576D01*
X261094Y6882D01*
X261874Y6252D01*
X262705Y5691D01*
X263580Y5202D01*
X264494Y4789D01*
X265439Y4455D01*
X266409Y4202D01*
X267397Y4033D01*
X268396Y3948D01*
X269399D01*
X270398Y4033D01*
X271386Y4202D01*
X272356Y4455D01*
X273302Y4789D01*
X274215Y5202D01*
X275090Y5691D01*
X275921Y6252D01*
X276701Y6882D01*
X277425Y7576D01*
X278087Y8328D01*
X278683Y9134D01*
X279209Y9988D01*
X279660Y10883D01*
X280034Y11813D01*
X280328Y12772D01*
X280539Y13752D01*
X280666Y14746D01*
X280709Y15748D01*
X87795D02*
X87753Y16750D01*
X87625Y17744D01*
X87414Y18724D01*
X87121Y19683D01*
X86747Y20613D01*
X86295Y21508D01*
X85770Y22362D01*
X85174Y23168D01*
X84511Y23921D01*
X83788Y24614D01*
X83008Y25244D01*
X82177Y25806D01*
X81302Y26294D01*
X80388Y26707D01*
X79443Y27041D01*
X78473Y27294D01*
X77485Y27463D01*
X76486Y27548D01*
X75483D01*
X74484Y27463D01*
X73496Y27294D01*
X72526Y27041D01*
X71580Y26707D01*
X70667Y26294D01*
X69792Y25806D01*
X68961Y25244D01*
X68181Y24614D01*
X67457Y23921D01*
X66795Y23168D01*
X66199Y22362D01*
X65673Y21508D01*
X65222Y20613D01*
X64848Y19683D01*
X64554Y18724D01*
X64343Y17744D01*
X64216Y16750D01*
X64173Y15748D01*
X64216Y14746D01*
X64343Y13752D01*
X64554Y12772D01*
X64848Y11813D01*
X65222Y10883D01*
X65673Y9988D01*
X66199Y9134D01*
X66795Y8328D01*
X67457Y7576D01*
X68181Y6882D01*
X68961Y6252D01*
X69792Y5691D01*
X70667Y5202D01*
X71580Y4789D01*
X72526Y4455D01*
X73496Y4202D01*
X74484Y4033D01*
X75483Y3948D01*
X76486D01*
X77485Y4033D01*
X78473Y4202D01*
X79443Y4455D01*
X80388Y4789D01*
X81302Y5202D01*
X82177Y5691D01*
X83008Y6252D01*
X83788Y6882D01*
X84511Y7576D01*
X85174Y8328D01*
X85770Y9134D01*
X86295Y9988D01*
X86747Y10883D01*
X87121Y11813D01*
X87414Y12772D01*
X87625Y13752D01*
X87753Y14746D01*
X87795Y15748D01*
X181102Y133858D02*
X181038Y134865D01*
X180845Y135855D01*
X180527Y136813D01*
X180089Y137722D01*
X179539Y138568D01*
X178885Y139336D01*
X178138Y140014D01*
X177310Y140592D01*
X176416Y141058D01*
X175469Y141407D01*
X174485Y141631D01*
X173481Y141728D01*
X172472Y141696D01*
X171476Y141535D01*
X170509Y141248D01*
X169586Y140839D01*
X168723Y140316D01*
X167935Y139687D01*
X167233Y138962D01*
X166629Y138154D01*
X166134Y137275D01*
X165755Y136339D01*
X165499Y135363D01*
X165371Y134363D01*
Y133354D01*
X165499Y132353D01*
X165755Y131377D01*
X166134Y130442D01*
X166629Y129563D01*
X167233Y128754D01*
X167935Y128029D01*
X168723Y127400D01*
X169586Y126877D01*
X170509Y126469D01*
X171476Y126182D01*
X172472Y126021D01*
X173481Y125988D01*
X174485Y126085D01*
X175469Y126310D01*
X176416Y126658D01*
X177310Y127125D01*
X178138Y127702D01*
X178885Y128380D01*
X179539Y129149D01*
X180089Y129994D01*
X180527Y130903D01*
X180845Y131861D01*
X181038Y132851D01*
X181102Y133858D01*
X125394Y47244D02*
X125329Y48251D01*
X125136Y49241D01*
X124818Y50199D01*
X124381Y51108D01*
X123830Y51954D01*
X123176Y52722D01*
X122429Y53400D01*
X121601Y53978D01*
X120707Y54444D01*
X119760Y54793D01*
X118776Y55017D01*
X117772Y55114D01*
X116764Y55082D01*
X115768Y54921D01*
X114800Y54634D01*
X113878Y54225D01*
X113015Y53702D01*
X112226Y53073D01*
X111524Y52348D01*
X110921Y51540D01*
X110425Y50661D01*
X110047Y49725D01*
X109791Y48749D01*
X109662Y47749D01*
Y46740D01*
X109791Y45739D01*
X110047Y44763D01*
X110425Y43828D01*
X110921Y42948D01*
X111524Y42140D01*
X112226Y41415D01*
X113015Y40786D01*
X113878Y40263D01*
X114800Y39855D01*
X115768Y39568D01*
X116764Y39406D01*
X117772Y39374D01*
X118776Y39471D01*
X119760Y39696D01*
X120707Y40044D01*
X121601Y40511D01*
X122429Y41088D01*
X123176Y41766D01*
X123830Y42535D01*
X124381Y43380D01*
X124818Y44289D01*
X125136Y45247D01*
X125329Y46237D01*
X125394Y47244D01*
X236811Y47244D02*
X236746Y48251D01*
X236554Y49241D01*
X236236Y50199D01*
X235798Y51108D01*
X235247Y51954D01*
X234593Y52722D01*
X233846Y53400D01*
X233019Y53978D01*
X232124Y54444D01*
X231177Y54793D01*
X230194Y55017D01*
X229189Y55114D01*
X228181Y55082D01*
X227185Y54921D01*
X226218Y54634D01*
X225295Y54225D01*
X224432Y53702D01*
X223643Y53073D01*
X222941Y52348D01*
X222338Y51540D01*
X221843Y50661D01*
X221464Y49725D01*
X221208Y48749D01*
X221079Y47749D01*
Y46740D01*
X221208Y45739D01*
X221464Y44763D01*
X221843Y43828D01*
X222338Y42948D01*
X222941Y42140D01*
X223643Y41415D01*
X224432Y40786D01*
X225295Y40263D01*
X226218Y39855D01*
X227185Y39568D01*
X228181Y39406D01*
X229189Y39374D01*
X230194Y39471D01*
X231177Y39696D01*
X232124Y40044D01*
X233019Y40511D01*
X233846Y41088D01*
X234593Y41766D01*
X235247Y42535D01*
X235798Y43380D01*
X236236Y44289D01*
X236554Y45247D01*
X236746Y46237D01*
X236811Y47244D01*
X37402Y299213D02*
X37359Y300214D01*
X37232Y301209D01*
X37020Y302189D01*
X36727Y303147D01*
X36353Y304078D01*
X35902Y304973D01*
X35376Y305826D01*
X34780Y306632D01*
X34118Y307385D01*
X33394Y308079D01*
X32614Y308709D01*
X31783Y309270D01*
X30908Y309759D01*
X29994Y310172D01*
X29049Y310506D01*
X28079Y310758D01*
X27091Y310928D01*
X26092Y311013D01*
X25089D01*
X24090Y310928D01*
X23102Y310758D01*
X22132Y310506D01*
X21187Y310172D01*
X20273Y309759D01*
X19398Y309270D01*
X18567Y308709D01*
X17787Y308079D01*
X17063Y307385D01*
X16401Y306632D01*
X15805Y305826D01*
X15279Y304973D01*
X14828Y304078D01*
X14454Y303147D01*
X14161Y302189D01*
X13949Y301209D01*
X13822Y300214D01*
X13780Y299213D01*
X13822Y298211D01*
X13949Y297217D01*
X14161Y296236D01*
X14454Y295278D01*
X14828Y294348D01*
X15279Y293452D01*
X15805Y292599D01*
X16401Y291793D01*
X17063Y291040D01*
X17787Y290346D01*
X18567Y289717D01*
X19398Y289155D01*
X20273Y288666D01*
X21187Y288253D01*
X22132Y287919D01*
X23102Y287667D01*
X24090Y287497D01*
X25089Y287412D01*
X26092D01*
X27091Y287497D01*
X28079Y287667D01*
X29049Y287919D01*
X29994Y288253D01*
X30908Y288666D01*
X31783Y289155D01*
X32614Y289717D01*
X33394Y290346D01*
X34118Y291040D01*
X34780Y291793D01*
X35376Y292599D01*
X35902Y293452D01*
X36353Y294348D01*
X36727Y295278D01*
X37020Y296236D01*
X37232Y297217D01*
X37359Y298211D01*
X37402Y299213D01*
X336614D02*
X336572Y300214D01*
X336444Y301209D01*
X336233Y302189D01*
X335940Y303147D01*
X335566Y304078D01*
X335114Y304973D01*
X334589Y305826D01*
X333993Y306632D01*
X333330Y307385D01*
X332606Y308079D01*
X331826Y308709D01*
X330996Y309270D01*
X330120Y309759D01*
X329207Y310172D01*
X328262Y310506D01*
X327291Y310758D01*
X326303Y310928D01*
X325304Y311013D01*
X324302D01*
X323303Y310928D01*
X322315Y310758D01*
X321345Y310506D01*
X320399Y310172D01*
X319486Y309759D01*
X318611Y309270D01*
X317780Y308709D01*
X317000Y308079D01*
X316276Y307385D01*
X315614Y306632D01*
X315018Y305826D01*
X314492Y304973D01*
X314041Y304078D01*
X313667Y303147D01*
X313373Y302189D01*
X313162Y301209D01*
X313035Y300214D01*
X312992Y299213D01*
X313035Y298211D01*
X313162Y297217D01*
X313373Y296236D01*
X313667Y295278D01*
X314041Y294348D01*
X314492Y293452D01*
X315018Y292599D01*
X315614Y291793D01*
X316276Y291040D01*
X317000Y290346D01*
X317780Y289717D01*
X318611Y289155D01*
X319486Y288666D01*
X320399Y288253D01*
X321345Y287919D01*
X322315Y287667D01*
X323303Y287497D01*
X324302Y287412D01*
X325304D01*
X326303Y287497D01*
X327291Y287667D01*
X328262Y287919D01*
X329207Y288253D01*
X330120Y288666D01*
X330996Y289155D01*
X331826Y289717D01*
X332606Y290346D01*
X333330Y291040D01*
X333993Y291793D01*
X334589Y292599D01*
X335114Y293452D01*
X335566Y294348D01*
X335940Y295278D01*
X336233Y296236D01*
X336444Y297217D01*
X336572Y298211D01*
X336614Y299213D01*
M02*
