G04*
G04 #@! TF.GenerationSoftware,Altium Limited,Altium Designer,22.1.2 (22)*
G04*
G04 Layer_Physical_Order=1*
G04 Layer_Color=255*
%FSLAX25Y25*%
%MOIN*%
G70*
G04*
G04 #@! TF.SameCoordinates,0AB73392-B4F8-4B41-AFD0-4ADCA8AC720B*
G04*
G04*
G04 #@! TF.FilePolarity,Positive*
G04*
G01*
G75*
%ADD13C,0.01575*%
%ADD23C,0.02362*%
%ADD24R,0.07087X0.07087*%
%ADD25C,0.07087*%
%ADD26R,0.07087X0.07087*%
%ADD27R,0.11811X0.11811*%
%ADD28C,0.11811*%
%ADD29C,0.12598*%
%ADD30C,0.09055*%
%ADD31R,0.05512X0.09843*%
%ADD32O,0.05512X0.09843*%
G36*
X143701Y230233D02*
Y208744D01*
X142082Y207125D01*
X121653D01*
X120886Y206972D01*
X120234Y206537D01*
X101337Y187640D01*
X100902Y186988D01*
X100749Y186221D01*
Y167367D01*
X94838Y161456D01*
X51143D01*
X48425Y164173D01*
X43701D01*
X43252Y163645D01*
X42532Y163229D01*
X41653Y162350D01*
X41031Y161272D01*
X40935Y160916D01*
X40525Y160432D01*
X39528D01*
X38759Y160280D01*
X38108Y159844D01*
X22367Y144103D01*
X22257Y144166D01*
X21055Y144488D01*
X19811D01*
X18609Y144166D01*
X17532Y143544D01*
X16653Y142665D01*
X16031Y141587D01*
X15709Y140386D01*
Y139142D01*
X16031Y137940D01*
X16653Y136863D01*
X17532Y135983D01*
X18609Y135361D01*
X19811Y135039D01*
X21055D01*
X22257Y135361D01*
X23334Y135983D01*
X24214Y136863D01*
X24836Y137940D01*
X25157Y139142D01*
Y140386D01*
X24982Y141041D01*
X25522Y141581D01*
X25984Y141390D01*
Y133071D01*
X18110D01*
X14961Y129921D01*
Y85039D01*
X25197Y74803D01*
Y29528D01*
X30709Y24016D01*
X328740D01*
X343307Y39370D01*
Y47244D01*
X328740Y61811D01*
X323228D01*
X321452Y63587D01*
X321654Y64339D01*
Y65499D01*
X321685Y65518D01*
X322152Y65636D01*
X322998Y64790D01*
X324034Y64192D01*
X324787Y63990D01*
Y68425D01*
Y72861D01*
X324034Y72659D01*
X322998Y72061D01*
X322152Y71215D01*
X321554Y70179D01*
X321366Y69479D01*
X320866Y69545D01*
Y74410D01*
X349213D01*
Y1181D01*
X1181D01*
X1181Y150471D01*
X19225Y171260D01*
X70866D01*
X116929Y217323D01*
X131496D01*
Y232252D01*
X141681D01*
X143701Y230233D01*
D02*
G37*
G36*
X63386Y117323D02*
Y31496D01*
X57480Y25591D01*
X31496D01*
X26772Y30315D01*
Y43307D01*
X45276D01*
Y52362D01*
X55905Y62992D01*
Y67323D01*
X50787Y72441D01*
Y88583D01*
X41732Y97638D01*
Y117323D01*
X46850Y122441D01*
X58268D01*
X63386Y117323D01*
D02*
G37*
%LPC*%
G36*
X137969Y230974D02*
Y226157D01*
X140757D01*
Y227323D01*
X140628Y228303D01*
X140249Y229217D01*
X139647Y230002D01*
X138863Y230604D01*
X137969Y230974D01*
D02*
G37*
G36*
X135968Y230974D02*
X135074Y230604D01*
X134290Y230002D01*
X133688Y229217D01*
X133309Y228303D01*
X133180Y227323D01*
Y226157D01*
X135968D01*
Y230974D01*
D02*
G37*
G36*
X140757Y224158D02*
X137969D01*
Y219341D01*
X138863Y219711D01*
X139647Y220313D01*
X140249Y221098D01*
X140628Y222012D01*
X140757Y222992D01*
Y224158D01*
D02*
G37*
G36*
X135968D02*
X133180D01*
Y222992D01*
X133309Y222012D01*
X133688Y221098D01*
X134290Y220313D01*
X135074Y219711D01*
X135968Y219341D01*
Y224158D01*
D02*
G37*
G36*
X26433Y163884D02*
Y160449D01*
X29869D01*
X29667Y161203D01*
X29069Y162239D01*
X28223Y163084D01*
X27187Y163682D01*
X26433Y163884D01*
D02*
G37*
G36*
X24433Y163884D02*
X23679Y163682D01*
X22643Y163084D01*
X21798Y162239D01*
X21199Y161203D01*
X20997Y160449D01*
X24433D01*
Y163884D01*
D02*
G37*
G36*
X29869Y158449D02*
X26433D01*
Y155013D01*
X27187Y155215D01*
X28223Y155813D01*
X29069Y156659D01*
X29667Y157695D01*
X29869Y158449D01*
D02*
G37*
G36*
X24433D02*
X20998D01*
X21199Y157695D01*
X21798Y156659D01*
X22643Y155813D01*
X23679Y155215D01*
X24433Y155013D01*
Y158449D01*
D02*
G37*
G36*
X338598Y72861D02*
Y69425D01*
X342034D01*
X341832Y70179D01*
X341234Y71215D01*
X340388Y72061D01*
X339352Y72659D01*
X338598Y72861D01*
D02*
G37*
G36*
X336598Y72861D02*
X335845Y72659D01*
X334809Y72061D01*
X333963Y71215D01*
X333365Y70179D01*
X333163Y69425D01*
X336598D01*
Y72861D01*
D02*
G37*
G36*
X326787Y72861D02*
Y69425D01*
X330223D01*
X330021Y70179D01*
X329423Y71215D01*
X328577Y72061D01*
X327541Y72659D01*
X326787Y72861D01*
D02*
G37*
G36*
X17417Y71365D02*
Y67929D01*
X20853D01*
X20651Y68683D01*
X20053Y69719D01*
X19207Y70565D01*
X18171Y71163D01*
X17417Y71365D01*
D02*
G37*
G36*
X15417Y71365D02*
X14664Y71163D01*
X13628Y70565D01*
X12782Y69719D01*
X12184Y68683D01*
X11982Y67929D01*
X15417D01*
Y71365D01*
D02*
G37*
G36*
X342034Y67425D02*
X338598D01*
Y63990D01*
X339352Y64192D01*
X340388Y64790D01*
X341234Y65636D01*
X341832Y66672D01*
X342034Y67425D01*
D02*
G37*
G36*
X330223Y67425D02*
X326787D01*
Y63990D01*
X327541Y64192D01*
X328577Y64790D01*
X329423Y65636D01*
X330021Y66672D01*
X330223Y67425D01*
D02*
G37*
G36*
X336598Y67425D02*
X333163D01*
X333365Y66672D01*
X333963Y65636D01*
X334809Y64790D01*
X335845Y64192D01*
X336598Y63990D01*
Y67425D01*
D02*
G37*
G36*
X20853Y65929D02*
X17417D01*
Y62493D01*
X18171Y62695D01*
X19207Y63294D01*
X20053Y64139D01*
X20651Y65175D01*
X20853Y65929D01*
D02*
G37*
G36*
X15417D02*
X11982D01*
X12184Y65175D01*
X12782Y64139D01*
X13628Y63294D01*
X14664Y62695D01*
X15417Y62493D01*
Y65929D01*
D02*
G37*
G36*
X36433Y22590D02*
Y16748D01*
X42275D01*
X42073Y17762D01*
X41553Y19019D01*
X40797Y20150D01*
X39835Y21112D01*
X38704Y21868D01*
X37447Y22388D01*
X36433Y22590D01*
D02*
G37*
G36*
X34433D02*
X33419Y22388D01*
X32162Y21868D01*
X31031Y21112D01*
X30069Y20150D01*
X29313Y19019D01*
X28793Y17762D01*
X28591Y16748D01*
X34433D01*
Y22590D01*
D02*
G37*
G36*
X289189Y18176D02*
Y14740D01*
X292625D01*
X292423Y15494D01*
X291825Y16530D01*
X290979Y17376D01*
X289943Y17974D01*
X289189Y18176D01*
D02*
G37*
G36*
X287189Y18176D02*
X286435Y17974D01*
X285399Y17376D01*
X284553Y16530D01*
X283955Y15494D01*
X283753Y14740D01*
X287189D01*
Y18176D01*
D02*
G37*
G36*
X339583Y18176D02*
Y14740D01*
X343018D01*
X342816Y15494D01*
X342218Y16530D01*
X341372Y17376D01*
X340336Y17974D01*
X339583Y18176D01*
D02*
G37*
G36*
X337583Y18176D02*
X336829Y17974D01*
X335793Y17376D01*
X334947Y16530D01*
X334349Y15494D01*
X334147Y14740D01*
X337583D01*
Y18176D01*
D02*
G37*
G36*
X292625Y12740D02*
X289189D01*
Y9305D01*
X289943Y9506D01*
X290979Y10105D01*
X291825Y10950D01*
X292423Y11987D01*
X292625Y12740D01*
D02*
G37*
G36*
X343018Y12740D02*
X339583D01*
Y9305D01*
X340336Y9506D01*
X341372Y10105D01*
X342218Y10950D01*
X342816Y11987D01*
X343018Y12740D01*
D02*
G37*
G36*
X337583D02*
X334147D01*
X334349Y11987D01*
X334947Y10950D01*
X335793Y10105D01*
X336829Y9506D01*
X337583Y9305D01*
Y12740D01*
D02*
G37*
G36*
X287189Y12740D02*
X283753D01*
X283955Y11987D01*
X284553Y10950D01*
X285399Y10105D01*
X286435Y9506D01*
X287189Y9305D01*
Y12740D01*
D02*
G37*
G36*
X42275Y14748D02*
X36433D01*
Y8906D01*
X37447Y9108D01*
X38704Y9628D01*
X39835Y10384D01*
X40797Y11346D01*
X41553Y12477D01*
X42073Y13734D01*
X42275Y14748D01*
D02*
G37*
G36*
X34433D02*
X28591D01*
X28793Y13734D01*
X29313Y12477D01*
X30069Y11346D01*
X31031Y10384D01*
X32162Y9628D01*
X33419Y9108D01*
X34433Y8906D01*
Y14748D01*
D02*
G37*
G36*
X269634Y23228D02*
X268161D01*
X266716Y22941D01*
X265354Y22377D01*
X264129Y21558D01*
X263087Y20516D01*
X262269Y19291D01*
X261705Y17930D01*
X261417Y16485D01*
Y15011D01*
X261705Y13566D01*
X262269Y12205D01*
X263087Y10980D01*
X264129Y9938D01*
X265354Y9119D01*
X266716Y8555D01*
X268161Y8268D01*
X269634D01*
X271079Y8555D01*
X272441Y9119D01*
X273666Y9938D01*
X274708Y10980D01*
X275527Y12205D01*
X276091Y13566D01*
X276378Y15011D01*
Y16485D01*
X276091Y17930D01*
X275527Y19291D01*
X274708Y20516D01*
X273666Y21558D01*
X272441Y22377D01*
X271079Y22941D01*
X269634Y23228D01*
D02*
G37*
G36*
X76721D02*
X75248D01*
X73802Y22941D01*
X72441Y22377D01*
X71216Y21558D01*
X70174Y20516D01*
X69355Y19291D01*
X68791Y17930D01*
X68504Y16485D01*
Y15011D01*
X68791Y13566D01*
X69355Y12205D01*
X70174Y10980D01*
X71216Y9938D01*
X72441Y9119D01*
X73802Y8555D01*
X75248Y8268D01*
X76721D01*
X78166Y8555D01*
X79527Y9119D01*
X80753Y9938D01*
X81795Y10980D01*
X82613Y12205D01*
X83177Y13566D01*
X83465Y15011D01*
Y16485D01*
X83177Y17930D01*
X82613Y19291D01*
X81795Y20516D01*
X80753Y21558D01*
X79527Y22377D01*
X78166Y22941D01*
X76721Y23228D01*
D02*
G37*
G36*
X52181Y120577D02*
Y117142D01*
X55617D01*
X55415Y117895D01*
X54817Y118931D01*
X53971Y119777D01*
X52935Y120375D01*
X52181Y120577D01*
D02*
G37*
G36*
X50181Y120577D02*
X49428Y120375D01*
X48392Y119777D01*
X47546Y118931D01*
X46947Y117895D01*
X46745Y117142D01*
X50181D01*
Y120577D01*
D02*
G37*
G36*
Y115142D02*
X46745D01*
X46947Y114388D01*
X47546Y113352D01*
X48392Y112506D01*
X49428Y111908D01*
X50181Y111706D01*
Y115142D01*
D02*
G37*
G36*
X55617D02*
X52181D01*
Y111706D01*
X52935Y111908D01*
X53971Y112506D01*
X54817Y113352D01*
X55415Y114388D01*
X55617Y115142D01*
D02*
G37*
G36*
X36433Y41094D02*
Y35252D01*
X42275D01*
X42073Y36266D01*
X41553Y37523D01*
X40797Y38654D01*
X39835Y39616D01*
X38704Y40372D01*
X37447Y40892D01*
X36433Y41094D01*
D02*
G37*
G36*
X34433D02*
X33419Y40892D01*
X32162Y40372D01*
X31031Y39616D01*
X30069Y38654D01*
X29313Y37523D01*
X28793Y36266D01*
X28591Y35252D01*
X34433D01*
Y41094D01*
D02*
G37*
G36*
X42275Y33252D02*
X36433D01*
Y27410D01*
X37447Y27612D01*
X38704Y28132D01*
X39835Y28888D01*
X40797Y29850D01*
X41553Y30981D01*
X42073Y32238D01*
X42275Y33252D01*
D02*
G37*
G36*
X34433D02*
X28591D01*
X28793Y32238D01*
X29313Y30981D01*
X30069Y29850D01*
X31031Y28888D01*
X32162Y28132D01*
X33419Y27612D01*
X34433Y27410D01*
Y33252D01*
D02*
G37*
%LPD*%
D13*
X213661Y304213D02*
X214567D01*
X148819Y211024D02*
Y227953D01*
X130315Y237008D02*
X139764D01*
X148819Y227953D01*
X84646Y240158D02*
X141339D01*
X153937Y227559D02*
X194077D01*
X141339Y240158D02*
X153937Y227559D01*
X151969Y233858D02*
X249606D01*
X137030Y248797D02*
X151969Y233858D01*
X136969Y255157D02*
X137030Y255096D01*
Y248797D02*
Y255096D01*
X39252Y244882D02*
X116007D01*
X116929Y245804D01*
X20866Y139764D02*
X39528Y158425D01*
X44409D01*
X20433Y139764D02*
X20866D01*
X44409Y158425D02*
X45433Y159449D01*
X126969Y233661D02*
X130315Y237008D01*
X126969Y225157D02*
Y233661D01*
X142913Y205118D02*
X148819Y211024D01*
X121653Y205118D02*
X142913D01*
X102756Y186221D02*
X121653Y205118D01*
X135827Y304213D02*
X213661D01*
X180197Y270748D02*
X213661Y304213D01*
X180197Y240158D02*
Y270748D01*
X255906Y240158D02*
X315866D01*
X249606Y233858D02*
X255906Y240158D01*
X325728Y98484D02*
X325787Y98425D01*
X327480Y108543D02*
X337598Y98425D01*
X293602Y116142D02*
X301753D01*
X291850Y114390D02*
X293602Y116142D01*
X235534Y186102D02*
X281496D01*
X301496Y135039D02*
X324764Y158307D01*
X324803D01*
X301457Y135039D02*
X301496D01*
X316929Y53150D02*
X326339Y43740D01*
X296850Y75709D02*
X307598Y64961D01*
X286929D02*
X287107Y64783D01*
X316929Y53150D02*
Y64961D01*
X307598D02*
X316929D01*
X312480Y29528D02*
X318386Y35433D01*
X288189Y44075D02*
X296929Y52815D01*
X288189Y43740D02*
Y44075D01*
Y43740D02*
X302402Y29528D01*
X296929Y52815D02*
Y53150D01*
X302402Y29528D02*
X312480D01*
X284646Y103108D02*
Y111478D01*
Y103108D02*
X291850Y95903D01*
X296850Y90709D02*
X301850Y85709D01*
X296850Y98543D02*
X296909Y98484D01*
X291850Y85709D02*
Y95903D01*
X296850Y90709D02*
Y98543D01*
X291850Y108543D02*
Y114390D01*
X20433Y127953D02*
X20472Y127913D01*
Y91575D02*
Y127913D01*
Y91575D02*
X20512Y91535D01*
X116929Y245804D02*
Y255118D01*
X116969Y255157D01*
X106968D02*
Y265354D01*
X45433Y159449D02*
X95669D01*
X68779Y175984D02*
X68898Y176102D01*
X59055Y175984D02*
X68779D01*
X95669Y159449D02*
X102756Y166535D01*
X304291Y118680D02*
X309684D01*
X301753Y116142D02*
X304291Y118680D01*
X284646Y111478D02*
X292852Y119685D01*
X302362D01*
X309684Y118680D02*
X310197Y119193D01*
X301850Y108543D02*
X327480D01*
X296909Y98484D02*
X325728D01*
X326339Y43740D02*
X338583D01*
X334646Y151969D02*
Y168150D01*
X334803Y168307D01*
X302362Y119685D02*
X334646Y151969D01*
X86968Y204173D02*
Y225157D01*
X77165Y232677D02*
X84646Y240158D01*
X77165Y225354D02*
Y232677D01*
X68898Y186102D02*
X86968Y204173D01*
X76968Y225157D02*
X77165Y225354D01*
X135827Y176102D02*
X214567D01*
X102756Y166535D02*
Y186221D01*
X106968Y265354D02*
X135827Y294213D01*
X194077Y227559D02*
X235534Y186102D01*
X24528Y210512D02*
Y240158D01*
Y210512D02*
X59055Y175984D01*
X34528Y240158D02*
X39252Y244882D01*
D23*
X16417Y66929D02*
Y68208D01*
X14410Y70215D02*
X16417Y68208D01*
X14410Y70215D02*
Y148425D01*
X25433Y159449D01*
X49903Y64961D02*
X51181D01*
D24*
X135827Y294213D02*
D03*
Y186102D02*
D03*
X214567Y294213D02*
D03*
Y186102D02*
D03*
X281496D02*
D03*
X68898D02*
D03*
X281496Y294213D02*
D03*
X68898D02*
D03*
X318386Y35433D02*
D03*
X301850Y108543D02*
D03*
Y85709D02*
D03*
D25*
X135827Y304213D02*
D03*
Y176102D02*
D03*
X214567Y304213D02*
D03*
Y176102D02*
D03*
X325866Y240158D02*
D03*
X170197Y240158D02*
D03*
X281496Y176102D02*
D03*
X68898D02*
D03*
X24528Y240158D02*
D03*
X281496Y304213D02*
D03*
X338583Y13740D02*
D03*
Y43740D02*
D03*
X36417Y66929D02*
D03*
X16417D02*
D03*
X316929Y64961D02*
D03*
X286929D02*
D03*
X25433Y159449D02*
D03*
X45433D02*
D03*
X337598Y68425D02*
D03*
Y98425D02*
D03*
X288189Y43740D02*
D03*
Y13740D02*
D03*
X324803Y158307D02*
D03*
X314803Y168307D02*
D03*
X334803D02*
D03*
X51181Y116142D02*
D03*
Y64961D02*
D03*
X340197Y119193D02*
D03*
X310197D02*
D03*
X20433Y127953D02*
D03*
X50433D02*
D03*
Y139764D02*
D03*
X20433D02*
D03*
X291457Y135039D02*
D03*
X301457D02*
D03*
X68898Y304213D02*
D03*
X308386Y35433D02*
D03*
X291850Y108543D02*
D03*
X296850Y98543D02*
D03*
X325787Y98425D02*
D03*
Y68425D02*
D03*
X296929Y53150D02*
D03*
X316929D02*
D03*
X296850Y75709D02*
D03*
X291850Y85709D02*
D03*
X40512Y91535D02*
D03*
X20512D02*
D03*
X30512Y81535D02*
D03*
D26*
X315866Y240158D02*
D03*
X180197Y240158D02*
D03*
X34528Y240158D02*
D03*
D27*
X35433Y52756D02*
D03*
D28*
Y34252D02*
D03*
Y15748D02*
D03*
D29*
X268898D02*
D03*
X75984D02*
D03*
X25591Y299213D02*
D03*
X324803D02*
D03*
D30*
X117520Y47244D02*
D03*
X228937D02*
D03*
X173228Y133858D02*
D03*
D31*
X136969Y255157D02*
D03*
D32*
X126969D02*
D03*
X116969D02*
D03*
X106968D02*
D03*
X96969D02*
D03*
X86968D02*
D03*
X76968D02*
D03*
X66969D02*
D03*
X136969Y225157D02*
D03*
X126969D02*
D03*
X116969D02*
D03*
X106968D02*
D03*
X96969D02*
D03*
X86968D02*
D03*
X76968D02*
D03*
X66969D02*
D03*
M02*
