G04*
G04 #@! TF.GenerationSoftware,Altium Limited,Altium Designer,22.1.2 (22)*
G04*
G04 Layer_Color=8388736*
%FSLAX25Y25*%
%MOIN*%
G70*
G04*
G04 #@! TF.SameCoordinates,0AB73392-B4F8-4B41-AFD0-4ADCA8AC720B*
G04*
G04*
G04 #@! TF.FilePolarity,Negative*
G04*
G01*
G75*
%ADD14R,0.07874X0.07874*%
%ADD15C,0.07874*%
%ADD16R,0.07874X0.07874*%
%ADD17R,0.12598X0.12598*%
%ADD18C,0.12598*%
%ADD19C,0.13386*%
%ADD20C,0.09843*%
%ADD21R,0.06299X0.10630*%
%ADD22O,0.06299X0.10630*%
D14*
X135827Y294213D02*
D03*
Y186102D02*
D03*
X214567Y294213D02*
D03*
Y186102D02*
D03*
X281496D02*
D03*
X68898D02*
D03*
X281496Y294213D02*
D03*
X68898D02*
D03*
X318386Y35433D02*
D03*
X301850Y108543D02*
D03*
Y85709D02*
D03*
D15*
X135827Y304213D02*
D03*
Y176102D02*
D03*
X214567Y304213D02*
D03*
Y176102D02*
D03*
X325866Y240158D02*
D03*
X170197Y240158D02*
D03*
X281496Y176102D02*
D03*
X68898D02*
D03*
X24528Y240158D02*
D03*
X281496Y304213D02*
D03*
X338583Y13740D02*
D03*
Y43740D02*
D03*
X36417Y66929D02*
D03*
X16417D02*
D03*
X316929Y64961D02*
D03*
X286929D02*
D03*
X25433Y159449D02*
D03*
X45433D02*
D03*
X337598Y68425D02*
D03*
Y98425D02*
D03*
X288189Y43740D02*
D03*
Y13740D02*
D03*
X324803Y158307D02*
D03*
X314803Y168307D02*
D03*
X334803D02*
D03*
X51181Y116142D02*
D03*
Y64961D02*
D03*
X340197Y119193D02*
D03*
X310197D02*
D03*
X20433Y127953D02*
D03*
X50433D02*
D03*
Y139764D02*
D03*
X20433D02*
D03*
X291457Y135039D02*
D03*
X301457D02*
D03*
X68898Y304213D02*
D03*
X308386Y35433D02*
D03*
X291850Y108543D02*
D03*
X296850Y98543D02*
D03*
X325787Y98425D02*
D03*
Y68425D02*
D03*
X296929Y53150D02*
D03*
X316929D02*
D03*
X296850Y75709D02*
D03*
X291850Y85709D02*
D03*
X40512Y91535D02*
D03*
X20512D02*
D03*
X30512Y81535D02*
D03*
D16*
X315866Y240158D02*
D03*
X180197Y240158D02*
D03*
X34528Y240158D02*
D03*
D17*
X35433Y52756D02*
D03*
D18*
Y34252D02*
D03*
Y15748D02*
D03*
D19*
X268898D02*
D03*
X75984D02*
D03*
X25591Y299213D02*
D03*
X324803D02*
D03*
D20*
X117520Y47244D02*
D03*
X228937D02*
D03*
X173228Y133858D02*
D03*
D21*
X136969Y255157D02*
D03*
D22*
X126969D02*
D03*
X116969D02*
D03*
X106968D02*
D03*
X96969D02*
D03*
X86968D02*
D03*
X76968D02*
D03*
X66969D02*
D03*
X136969Y225157D02*
D03*
X126969D02*
D03*
X116969D02*
D03*
X106968D02*
D03*
X96969D02*
D03*
X86968D02*
D03*
X76968D02*
D03*
X66969D02*
D03*
M02*
